<svg id="Layer_1" data-name="Layer 1" xmlns="http://www.w3.org/2000/svg" viewBox="0 0 463.71 633.6"><defs><style>.cls-1{fill:#1027a5;}</style></defs><path class="cls-1" d="M414.11,317.13c-.48,55.45-16.64,105.83-48.84,151-.46.65-1,1.24-1.5,1.85-4,5.09-7.94,10.23-12,15.25a94.63,94.63,0,0,1-6.87,7.7c-5.09,5.05-10.29,10-15.52,14.91-3.13,2.93-6.34,5.79-9.64,8.52-3.67,3-7.4,6-11.28,8.81-5.24,3.74-10.59,7.33-16,10.82-4.22,2.71-8.61,5.19-12.95,7.72a229.44,229.44,0,0,1-42.58,18.82,252.66,252.66,0,0,1-48.75,11.18,256.66,256.66,0,0,1-39.48,2.08,262.23,262.23,0,0,1-37.2-3.64c-.45-.08-.9-.23-1.61-.42.8-4.61,1.59-9.14,2.42-13.93,2.38.34,4.64.65,6.89,1A234.88,234.88,0,0,0,149,561.33a243,243,0,0,0,117.51-26.79A185.31,185.31,0,0,0,285.6,523.6c5.47-3.66,11-7.19,16.3-11.13,5-3.75,9.74-7.89,14.5-12a231.81,231.81,0,0,0,28.14-29c1.21-1.48,2.45-2.93,3.68-4.4,2.92-4.09,5.93-8.13,8.76-12.28a242.62,242.62,0,0,0,38.37-92,253.72,253.72,0,0,0,4.13-57.5c-.12-3.43-.51-6.85-.74-10.28-.07-1,0-2.06,0-3.09l-.06-.52c-.25-1.56-.51-3.11-.76-4.67L394.37,265c-1.12-4.41-2.17-8.84-3.38-13.22A242.15,242.15,0,0,0,337.89,154a243.2,243.2,0,0,0-75.95-57.64A240.71,240.71,0,0,0,199.27,75.8c-.54-.1-1.07-.27-1.87-.48.81-4.59,1.6-9.13,2.44-13.93,1.52.24,2.92.41,4.3.68a258.62,258.62,0,0,1,172.51,120.3A255.61,255.61,0,0,1,407.47,258c.68,2.95,1.16,5.94,1.74,8.92.77,4.15,1.67,8.29,2.28,12.47A249.63,249.63,0,0,1,414.11,317.13Z"/><path class="cls-1" d="M442.68,328.83a281.67,281.67,0,0,1-2.89,30.54,7,7,0,0,1-.36,1.13c-.67,4.17-1.21,8.38-2.05,12.52-1.07,5.24-2.25,10.47-3.63,15.63-1.3,4.86-2.86,9.64-4.4,14.42-1.88,5.8-3.8,11.58-5.82,17.33-.95,2.71-2.08,5.36-3.27,8-3.16,7-6.11,14-9.66,20.78q-44.16,84-129.19,126.27a277.79,277.79,0,0,1-78.2,25.17,273.82,273.82,0,0,1-38.86,3.85c-2.16,0-4.32.17-6.47.24-.94,0-1.88,0-2.94,0V590.41c1.61-.09,3.17-.23,4.74-.27q95.22-2.13,169.06-62.3A268.59,268.59,0,0,0,407.86,421a265,265,0,0,0,16.75-58.12c.13-.79.34-1.56.5-2.34l1.44-11.41a261.34,261.34,0,0,0,1.88-37.1,270.22,270.22,0,0,0-26.75-113.68,267.47,267.47,0,0,0-22.92-39,243.79,243.79,0,0,0-18.82-23.9,273.08,273.08,0,0,0-87.5-66A268.51,268.51,0,0,0,201.63,47a241.77,241.77,0,0,0-28.78-3.35c-5.19-.26-10.38-.4-15.57-.59-.71,0-1.42-.08-2.29-.13V28.7c1.09-.05,2.25-.2,3.4-.15,5.19.2,10.38.4,15.57.69a269.93,269.93,0,0,1,43.37,6.13A284.49,284.49,0,0,1,318.62,79.6a288,288,0,0,1,75.12,76,19.25,19.25,0,0,1,1.15,2.32,17.37,17.37,0,0,1,1.42,1.81c3.12,5.1,6.26,10.18,9.27,15.34,1.59,2.71,2.85,5.62,4.41,8.34a186.27,186.27,0,0,1,9.49,19.22A288.8,288.8,0,0,1,439,269.11,295.66,295.66,0,0,1,442.68,328.83Z"/><path class="cls-1" d="M385.22,323.44A231.23,231.23,0,0,1,332,464.13c-.76.92-1.61,1.76-2.41,2.64-3.15,3.51-6.18,7.13-9.47,10.49q-46,47-109.83,63a232.61,232.61,0,0,1-70.16,6.35,232.25,232.25,0,0,1-62.7-13c-.37-.14-.72-.32-1.37-.6,1.61-4.41,3.2-8.79,4.84-13.29.85.24,1.54.4,2.19.63a211.19,211.19,0,0,0,47.31,10.86,217,217,0,0,0,40.94.72A215.64,215.64,0,0,0,314.1,462.63c.59-.65,1.24-1.24,1.86-1.85,2.89-3.52,5.84-7,8.65-10.56a214.18,214.18,0,0,0,41.19-86.7,209.32,209.32,0,0,0,4.62-32.7,227.59,227.59,0,0,0-.22-32.09c-.38-4.84-1.07-9.66-1.62-14.48A246.26,246.26,0,0,0,362,255.06,216.43,216.43,0,0,0,251.13,123.19c-6.35-3.16-13-5.74-19.52-8.57-.87-.38-1.76-.72-2.83-1.16l4.8-13.22a17.9,17.9,0,0,1,1.9.49A229.71,229.71,0,0,1,360.72,213a227,227,0,0,1,21.16,63.92c.66,3.85,1.13,7.73,1.68,11.6A205,205,0,0,1,385.22,323.44Z"/><path class="cls-1" d="M355.82,334c-.28,3.26-.59,6.53-1.11,9.76-.58,3.62-1.69,7.17-2.09,10.8-1,8.8-3.58,17.17-6.34,25.48a201.82,201.82,0,0,1-46.63,77c-.38.39-.85.71-1.28,1.07a155.49,155.49,0,0,1-18.08,16.43,201.3,201.3,0,0,1-86.46,39.9,196.88,196.88,0,0,1-44.34,3.76,200.58,200.58,0,0,1-91.65-24.84c-1-.54-2-1.1-2.93-1.66a10.11,10.11,0,0,1-.84-.61l7.06-12.24c.64.3,1.14.49,1.6.76a185.45,185.45,0,0,0,56.65,20.84,177,177,0,0,0,30.72,3.26Q225,505,281,455c1.9-1.7,3.77-3.45,5.65-5.18,3.5-3.83,7.12-7.56,10.48-11.5A185.54,185.54,0,0,0,339,350.8a192.33,192.33,0,0,0,2.88-44.11c-.14-3.18-.47-6.36-.71-9.54a207.78,207.78,0,0,0-5.89-30.79,187.79,187.79,0,0,0-85-110.88c-.41-.24-.81-.51-1.2-.78a3.32,3.32,0,0,1-.47-.59l7.08-12.28c4.6,2.95,9.06,5.61,13.32,8.57q58,40.32,78.82,107.85a187.92,187.92,0,0,1,7.63,38.47c.23,2.53.34,5.08.5,7.62.11.86.29,1.73.32,2.6A228.18,228.18,0,0,1,355.82,334Z"/><path class="cls-1" d="M327.46,326.43a170.66,170.66,0,0,1-9.08,46.41,17.82,17.82,0,0,1-.79,1.72c-1.71,4.38-3.2,8.87-5.19,13.11-2.64,5.63-5.53,11.16-8.6,16.57a117.72,117.72,0,0,1-7,10.4c-3,4.24-6.19,8.39-9.33,12.55-.9,1.2-1.92,2.31-2.91,3.45a167.55,167.55,0,0,1-60.94,44.52.64.64,0,0,1-.24,0A108.15,108.15,0,0,1,204.55,482c-3.76.93-7.44,2.15-11.19,3.07a146.07,146.07,0,0,1-22.86,3.65,181.79,181.79,0,0,1-23,.57A172.07,172.07,0,0,1,45.57,450.5c-.55-.45-1.08-.93-1.8-1.57L52.93,438c.65.48,1.17.82,1.65,1.22a157.11,157.11,0,0,0,72.84,33.41A155.16,155.16,0,0,0,169,474.39c1.5-.14,3-.05,4.53-.16a36.4,36.4,0,0,0,4.18-.5c2.37-.43,4.7-1,7.06-1.45a149.21,149.21,0,0,0,17.68-4.52c3.5-1.1,7-2.35,10.43-3.53,4.56-2.1,9.19-4.07,13.68-6.33a155.16,155.16,0,0,0,44.52-33.6,163.48,163.48,0,0,0,19.85-26.49,159.48,159.48,0,0,0,14.47-31.47c.13-.37.31-.72.47-1.08,1-3.94,2.13-7.86,3.11-11.81A149.81,149.81,0,0,0,313,307.54c-2.71-41.79-19.33-77.21-49.5-106.26-1.09-1.06-2.24-2.05-3.37-3.06l-3.41-3,4.58-5.53,4.56-5.4c.66.52,1.23.93,1.77,1.39q43.2,37.58,55.93,93.39A170.45,170.45,0,0,1,327.46,326.43Z"/><path class="cls-1" d="M298.68,324.92A142.13,142.13,0,0,1,288.2,371.2a4.85,4.85,0,0,1-.49.81c-1.07,2.49-2,5-3.23,7.45C270,408.9,248,430.87,218.85,445.71c-.85.43-1.76.75-2.63,1.12a113.12,113.12,0,0,1-18.93,7.45,140.88,140.88,0,0,1-45.86,6.32,143.17,143.17,0,0,1-78.27-25.33,141.34,141.34,0,0,1-27.24-24.45c-.41-.48-.79-1-1.37-1.71L55.46,400c.67.73,1.21,1.29,1.73,1.87a129,129,0,0,0,70.22,41.48,125.85,125.85,0,0,0,23.29,2.83,129.22,129.22,0,0,0,54.5-10c.73-.31,1.49-.54,2.24-.81,2.13-1.08,4.27-2.13,6.38-3.24q43.92-23,62.17-69.12c.2-.51.47-1,.71-1.49,1.19-4,2.48-7.91,3.56-11.91a125.3,125.3,0,0,0,4-41.33,128.13,128.13,0,0,0-29.18-73.89c-.24-.3-.46-.62-.84-1.13l11-9.21c.83,1,1.55,1.83,2.23,2.69a143.9,143.9,0,0,1,31.27,98.24Z"/><path class="cls-1" d="M269.89,323.7a114.62,114.62,0,0,1-18.16,55.41,5.35,5.35,0,0,1-.62.72,94.14,94.14,0,0,1-13.35,16.86A115.25,115.25,0,0,1,175.94,430c-.93.19-1.89.25-2.84.37h0a104,104,0,0,1-22.9,1.4,117.37,117.37,0,0,1-17.32-2,115.37,115.37,0,0,1-40-16,114,114,0,0,1-36.53-37.4c-.4-.66-.76-1.35-1.23-2.19l12.28-7.11c.43.62.81,1.11,1.13,1.63q20.26,32.73,56.93,44.45a91.32,91.32,0,0,0,10.69,2.9c3.61.68,7.34.76,11,1.1a111.69,111.69,0,0,0,19.61-.32,107.41,107.41,0,0,0,25-6.37,100.76,100.76,0,0,0,49.13-41.22c.42-.68.87-1.34,1.31-2,2.3-4.92,4.86-9.73,6.85-14.77a100.6,100.6,0,0,0-5.65-84.12c-.26-.49-.53-1-.78-1.48a2.39,2.39,0,0,1-.12-.46c1.25-1.3,9-5.91,12.13-7.2.28.42.62.85.88,1.32A115.24,115.24,0,0,1,269.08,301,112.35,112.35,0,0,1,269.89,323.7Z"/><path class="cls-1" d="M226,365.73a13.76,13.76,0,0,1-.91,1.11c-1.79,2.22-3.49,4.52-5.36,6.67a84.28,84.28,0,0,1-43.49,26.84c-1.38.35-2.8.58-4.2.86a73.87,73.87,0,0,1-19.26,1.85A86.68,86.68,0,0,1,74.32,348c-.21-.51-.38-1-.67-1.84l13.44-4.91c.37.91.69,1.7,1,2.49,10.18,23.42,27.71,38,52.65,43.53a70.91,70.91,0,0,0,26.93.34,75.91,75.91,0,0,0,23.6-8.82,71.69,71.69,0,0,0,24.9-24.54c.5-.8,1.08-1.57,1.61-2.35a81.59,81.59,0,0,0,6.54-16.18,72.55,72.55,0,0,0-.95-41.34c-.17-.53-.34-1.06-.49-1.6a5.09,5.09,0,0,1-.09-.78c4.18-1.87,8.65-3.2,13.12-4.93.31.69.62,1.23.81,1.81Q249.71,329.85,226,365.73Z"/><path class="cls-1" d="M185.66,365.34a2.93,2.93,0,0,1-.65.29,52.87,52.87,0,0,1-20.16,7.74,51.58,51.58,0,0,1-20.19-.12c-19.48-3-38.64-18.15-45.06-40.32-.58-2-1-4-1.58-6.31l7.17-1.28,7-1.24c.17.61.33,1.12.45,1.64a43.2,43.2,0,0,0,16,25.18c1.18.92,2.34,1.86,3.54,2.75,3.05,2.25,6.83,2.86,10.17,4.46,3.29.52,6.57,1.27,9.89,1.52a41.83,41.83,0,0,0,27.35-7.52l2-1.3c2.69-2.83,5.69-5.43,8-8.53,7.11-9.46,9.66-20.19,8.07-31.91,0-.31,0-.63-.06-1.22,4.61-1.06,9.26-1.81,14.05-2.52.24,1.5.54,2.75.62,4C213.82,334,205.06,352.24,185.66,365.34Z"/><path class="cls-1" d="M182.3,325.46a28.75,28.75,0,0,1-26.12,20,1.9,1.9,0,0,1-.46-.1,22.59,22.59,0,0,1-8.95-1.06,28.81,28.81,0,0,1-20.7-25.5c0-.62,0-1.26,0-2.05h14.19c.09.58.17,1.12.26,1.66,1.28,7.33,6.12,11.87,13.54,12.69.56.06,1.11.08,1.67.12,1-.22,2-.41,3-.68a14.31,14.31,0,0,0,10.47-12.4c0-.4.09-.79.14-1.15,1.78-.5,11.55-.58,14.16-.12A19.91,19.91,0,0,1,182.3,325.46Z"/></svg>